<?xml version="1.0" encoding="UTF-8" standalone="no"?>
<!-- Created with Inkscape (http://www.inkscape.org/) -->

<svg
   xmlns:dc="http://purl.org/dc/elements/1.1/"
   xmlns:cc="http://creativecommons.org/ns#"
   xmlns:rdf="http://www.w3.org/1999/02/22-rdf-syntax-ns#"
   xmlns:svg="http://www.w3.org/2000/svg"
   xmlns="http://www.w3.org/2000/svg"
   xmlns:xlink="http://www.w3.org/1999/xlink"
   xmlns:sodipodi="http://sodipodi.sourceforge.net/DTD/sodipodi-0.dtd"
   xmlns:inkscape="http://www.inkscape.org/namespaces/inkscape"
   id="svg2"
   version="1.1"
   inkscape:version="0.48.3.1 r9886"
   width="128"
   height="128"
   xml:space="preserve"
   sodipodi:docname="refero.svg"
   inkscape:export-filename="viewworld/icon_128.png"
   inkscape:export-xdpi="90.109192"
   inkscape:export-ydpi="90.109192"><metadata
     id="metadata8"><rdf:RDF><cc:Work
         rdf:about=""><dc:format>image/svg+xml</dc:format><dc:type
           rdf:resource="http://purl.org/dc/dcmitype/StillImage" /><dc:title></dc:title></cc:Work></rdf:RDF></metadata><defs
     id="defs6"><linearGradient
       id="linearGradient3772"><stop
         id="stop3774"
         offset="0"
         style="stop-color:#32b5e6;stop-opacity:1;" /><stop
         style="stop-color:#33b5e6;stop-opacity:1;"
         offset="0.62606555"
         id="stop3776" /><stop
         id="stop3778"
         offset="1"
         style="stop-color:#1691c0;stop-opacity:1;" /></linearGradient><linearGradient
       id="linearGradient7631"><stop
         style="stop-color:#33b5e6;stop-opacity:1;"
         offset="0"
         id="stop7633" /><stop
         id="stop3770"
         offset="0.80000001"
         style="stop-color:#33b5e6;stop-opacity:1;" /><stop
         style="stop-color:#000000;stop-opacity:1;"
         offset="1"
         id="stop7635" /></linearGradient><clipPath
       clipPathUnits="userSpaceOnUse"
       id="clipPath562"><path
         d="M 0,853.609 0,0 l 4979.95,0 0,853.609 -4979.95,0 z"
         id="path564"
         inkscape:connector-curvature="0" /></clipPath><linearGradient
       inkscape:collect="always"
       xlink:href="#linearGradient7631"
       id="linearGradient7637"
       x1="40.504749"
       y1="-240.49632"
       x2="62.352314"
       y2="-322.78403"
       gradientUnits="userSpaceOnUse"
       gradientTransform="matrix(4.4243153,0,0,4.4243153,-23.29353,1450.4764)" /><linearGradient
       inkscape:collect="always"
       xlink:href="#linearGradient7631"
       id="linearGradient7714"
       gradientUnits="userSpaceOnUse"
       gradientTransform="matrix(4.4243153,0,0,4.4243153,-23.29353,1450.4764)"
       x1="40.504749"
       y1="-240.49632"
       x2="62.352314"
       y2="-322.78403" /><radialGradient
       inkscape:collect="always"
       xlink:href="#linearGradient3772"
       id="radialGradient3768"
       cx="188.12512"
       cy="354.86066"
       fx="188.12512"
       fy="354.86066"
       r="188.94513"
       gradientTransform="matrix(2.3863512,0,-1.6564426e-8,1.8477532,-249.56773,-290.29178)"
       gradientUnits="userSpaceOnUse" /><filter
       id="filter3840"
       inkscape:label="Drop Shadow"
       color-interpolation-filters="sRGB"><feFlood
         id="feFlood3842"
         flood-opacity="0.5"
         flood-color="rgb(0,0,0)"
         result="flood" /><feComposite
         id="feComposite3844"
         in2="SourceGraphic"
         in="flood"
         operator="in"
         result="composite1" /><feGaussianBlur
         id="feGaussianBlur3846"
         stdDeviation="5"
         result="blur" /><feOffset
         id="feOffset3848"
         dx="0"
         dy="-10"
         result="offset" /><feComposite
         id="feComposite3850"
         in2="offset"
         in="SourceGraphic"
         operator="over"
         result="composite2" /></filter></defs><sodipodi:namedview
     pagecolor="#494949"
     bordercolor="#666666"
     borderopacity="1"
     objecttolerance="10"
     gridtolerance="10"
     guidetolerance="10"
     inkscape:pageopacity="0"
     inkscape:pageshadow="2"
     inkscape:window-width="1680"
     inkscape:window-height="1026"
     id="namedview4"
     showgrid="false"
     inkscape:zoom="4"
     inkscape:cx="20.464466"
     inkscape:cy="43.105059"
     inkscape:window-x="1280"
     inkscape:window-y="24"
     inkscape:window-maximized="1"
     inkscape:current-layer="g10"
     showguides="false"
     inkscape:guide-bbox="true"><inkscape:grid
       type="xygrid"
       id="grid7658"
       empspacing="4"
       visible="true"
       enabled="true"
       snapvisiblegridlinesonly="true"
       dotted="false" /><sodipodi:guide
       orientation="1,0"
       position="48,240"
       id="guide7700" /><sodipodi:guide
       orientation="0,1"
       position="56,464"
       id="guide7702" /><sodipodi:guide
       orientation="1,0"
       position="464,280.85106"
       id="guide7704" /><sodipodi:guide
       orientation="0,1"
       position="356.38298,48"
       id="guide7706" /></sodipodi:namedview><g
     id="g10"
     inkscape:groupmode="layer"
     inkscape:label="ink_ext_XXXXXX"
     transform="matrix(1.25,0,0,-1.25,0,128)"><g
       id="g7710"
       transform="matrix(0.20323361,0,0,0.20335561,9.5694211,9.55923)"
       inkscape:export-xdpi="12.837672"
       inkscape:export-ydpi="12.837672"
       inkscape:export-filename="/home/michael/Code/projects/viewworld/colligo/art/market/app_icon72.png"
       style="filter:url(#filter3840)"><path
         transform="matrix(0.80779245,0,0,-0.80779245,-0.15584891,419.44937)"
         d="m 487.44681,265.72342 c 0,129.08187 -104.64153,233.7234 -233.72341,233.7234 C 124.64153,499.44682 20,394.80529 20,265.72342 20,136.64155 124.64153,32.000015 253.7234,32.000015 c 129.08188,0 233.72341,104.641535 233.72341,233.723405 z"
         sodipodi:ry="233.7234"
         sodipodi:rx="233.7234"
         sodipodi:cy="265.72342"
         sodipodi:cx="253.7234"
         id="path7708"
         style="fill:#ffffff;fill-opacity:1;fill-rule:nonzero;stroke:none"
         sodipodi:type="arc" /><path
         style="fill:url(#radialGradient3768);fill-opacity:1;fill-rule:nonzero"
         inkscape:connector-curvature="0"
         d="m 230.3078,56.009348 0,-0.06061 c -20.31382,-4.536648 -40.09538,-6.912992 -59.34956,-7.123855 -12.46772,13.777804 -23.53514,28.962054 -33.20492,45.542618 23.53337,1.785654 48.64136,5.855579 75.31688,12.215529 5.80869,-18.23304 11.55368,-35.088796 17.2376,-50.573811 z m 6.17015,-16.153927 c 2.97093,-7.466032 5.70294,-14.332327 8.20711,-19.759015 -13.92778,-3.359665 -25.44648,-3.900674 -37.9142,-4.159939 -2.79793,2.082525 -5.61666,4.286055 -8.45973,6.619174 -4.96187,4.15129 -9.75429,8.416596 -14.37725,12.780431 17.2619,-0.760452 34.77733,0.743108 52.54407,4.519349 z M 111.54456,93.482768 c 9.92329,-16.077519 21.39554,-30.664044 34.4163,-43.767672 -15.18292,1.356672 -30.00438,4.133948 -44.46614,8.333596 18.44719,-9.538204 37.33857,-16.093446 56.67637,-19.6571 3.73279,-3.262932 7.59035,-6.422159 11.57887,-9.475998 5.93655,-4.496874 11.89389,-8.610116 17.8738,-12.344857 -26.50431,2.334888 -52.60253,10.167877 -77.4517,24.498499 -26.435841,15.340357 -48.81782,36.889052 -64.59307,61.953684 11.06769,-4.496875 25.826852,-7.43993 44.274034,-8.845092 7.041298,-0.548173 14.270186,-0.781334 21.691536,-0.69506 z m 77.67106,94.397192 c 5.34369,-19.76253 10.66482,-38.42429 15.96515,-55.97821 -27.52234,-6.99926 -53.53909,-12.78538 -78.05289,-17.36853 -8.14162,16.71196 -15.01126,34.56806 -20.60935,53.56341 25.61635,5.51314 53.18027,12.10449 82.69709,19.78333 z M 24.777762,153.46542 c 5.003281,0.72205 10.433464,1.54674 16.285285,2.47983 12.63695,1.90998 25.952989,4.24469 39.946656,6.99927 5.558267,-18.87236 12.553994,-36.42627 20.992937,-52.67148 -20.058079,-3.09392 -38.994149,-5.29723 -56.805601,-6.61567 -9.750793,15.69216 -17.914992,32.70181 -23.091086,51.86794 C 17.01799,174.57243 15.45042,193.64882 16,211.92832 c 16.114206,7.84122 33.629981,15.41078 52.543752,22.70426 0.975119,-19.84925 4.156644,-40.22012 9.541921,-61.12811 C 64.641506,168.88106 51.9631,164.2581 40.0451,159.6369 34.533731,157.51456 29.444043,155.46123 24.777762,153.46542 z M 152.3832,347.35396 c 0.0845,-0.3389 0.14821,-0.69993 0.19157,-1.07998 2.8413,-16.32882 6.3166,-33.92565 10.43165,-52.798 -26.37821,-7.80317 -50.14696,-16.8593 -71.309341,-27.16486 0.04336,19.89217 2.141368,39.22775 6.298013,58.01384 16.582338,9.24637 34.710078,16.92123 54.388108,23.029 z M 92.397005,243.54138 c 23.621865,8.39603 49.108575,16.43235 76.463225,24.10589 4.5367,-19.37718 9.68837,-39.92768 15.45546,-61.63824 -29.42833,-8.1018 -56.61398,-16.20228 -81.54897,-24.29878 -5.385281,21.15708 -8.843326,41.77173 -10.369715,61.83113 z m -5.787889,95.79705 c -1.696725,-3.94384 -3.224883,-7.95182 -4.581378,-12.01998 -15.350162,-12.84954 -28.794373,-28.24837 -40.328696,-46.18764 10.644283,11.06964 22.3704,21.06062 35.17835,29.96456 C 71.78766,292.68933 68.967159,273.69088 68.415889,254.0978 62.055936,250.36987 55.927729,246.53134 50.030957,242.5875 34.723844,232.06604 23.379634,222.10248 16,212.68886 c 1.05942,29.76901 9.183829,58.96121 25.21507,86.74237 14.418755,24.93544 32.968357,44.61467 54.809874,59.8821 -3.394335,-6.31837 -6.532944,-12.97741 -9.415828,-19.9749 z m 21.563674,19.59308 c 1.35826,3.60493 2.75634,7.12403 4.19956,10.56128 10.85505,5.93655 22.49675,11.42355 34.92289,15.32624 0.50791,-5.68436 1.31313,-12.86853 2.41567,-20.41597 -17.04733,-5.47155 -32.71914,-12.74557 -47.00835,-21.81895 1.65425,5.51313 3.47751,10.96035 5.47023,16.3474 z m 71.18104,-5.46978 c -0.12787,0.33846 -0.25396,0.67736 -0.38182,1.01626 20.10497,4.5367 39.67372,6.95591 58.71555,7.25322 12.97563,-14.20957 24.48947,-29.89863 34.54063,-47.07206 -23.53692,-1.69716 -48.66393,-5.72948 -75.3793,-12.08944 -5.89672,18.36268 -11.72576,35.32551 -17.49506,50.89202 z m -14.24763,36.12715 c 12.68009,2.79617 25.23099,3.75716 37.65712,4.01112 2.88421,-2.20331 5.78966,-4.5159 8.71546,-6.93334 4.45174,-3.68988 8.77961,-7.50586 12.97919,-11.44969 -16.92126,0.67913 -34.12078,-0.84858 -51.59196,-4.58182 -2.8413,7.08421 -5.42819,13.77905 -7.75981,18.95373 z m 153.05036,-246.8126 c -0.0863,-19.24754 -2.05819,-37.97346 -5.91752,-56.168456 -16.7916,-9.413615 -35.17861,-17.238902 -55.14997,-23.472762 l 0,0.06371 c -2.75679,16.242104 -6.17192,33.735404 -10.24185,52.483438 26.33706,7.80317 50.10537,16.83319 71.30934,27.09407 z M 307.72314,68.54423 c -1.82149,-6.148913 -3.85933,-12.235886 -6.10776,-18.258839 -1.18528,-3.434021 -2.31849,-6.843283 -3.71835,-10.066485 -10.94,-6.022953 -22.68833,-11.521133 -35.24276,-15.504742 -0.59242,5.936546 -1.6196,13.442409 -2.76727,21.375029 17.34465,5.639276 33.29298,13.126059 47.83614,22.455037 z m 0.7017,153.61886 c 4.66455,-19.33381 7.67353,-38.20617 9.03003,-56.61221 -23.57851,-8.35266 -49.04398,-16.36643 -76.39554,-24.03996 -4.19956,17.84946 -8.88491,36.67713 -14.05915,56.48258 29.34737,8.09871 56.48612,16.15583 81.42466,24.16959 z m 51.20791,-55.65302 c 15.26389,10.38697 26.58748,20.26735 33.96725,29.64469 -1.64237,-33.52744 -11.17086,-62.87217 -25.60423,-86.98179 -14.43336,-24.109628 -32.23884,-43.256033 -53.91267,-58.525053 3.26824,6.195767 6.32013,12.5336 9.16143,19.356779 1.9082,4.628277 3.66731,9.272038 5.27997,13.933054 14.9303,12.763265 28.00946,27.86478 39.24987,45.29393 -10.43474,-10.8586 -21.8831,-20.63191 -34.35038,-29.328346 4.83224,17.942806 7.50408,36.348406 8.01199,55.217666 6.31837,3.68988 12.38278,7.48329 18.19677,11.38907 z m -76.78267,128.04588 c 8.73803,-18.10872 16.07266,-37.65844 22.0092,-58.64784 -25.65572,-5.51314 -53.24221,-12.0859 -82.75858,-19.71961 -5.8503,21.6672 -11.65898,42.02568 -17.42962,61.06794 27.56572,6.99395 53.62582,12.76282 78.179,17.29951 z m 81.93478,10.94001 c 10.02802,-16.04701 17.6532,-32.65147 22.61834,-51.64687 4.96513,-18.9954 6.6824,-35.61206 6.34118,-56.89014 -16.11779,-7.75981 -33.64664,-15.22835 -52.43272,-22.56475 -0.85212,18.27641 -3.58281,36.97622 -8.20755,56.10784 13.39904,4.57607 26.03798,9.19948 37.91107,13.86581 5.47509,2.07721 10.60243,4.09072 15.39529,6.04007 -5.12955,-0.67913 -10.6011,-1.46047 -16.40978,-2.35064 -12.59558,-1.95289 -25.80615,-4.28583 -39.63213,-6.99926 -5.81046,20.82525 -13.27295,40.05553 -22.39146,57.69749 19.97534,3.13684 38.91141,5.38351 56.80776,6.74045 z m -44.97626,9.41538 c -6.91122,0.50791 -13.99366,0.74152 -21.24335,0.69993 -10.39227,16.75178 -22.41535,31.87055 -36.07232,45.35454 15.482,-1.31358 30.60077,-4.07037 45.35631,-8.26993 -18.86882,9.7127 -38.1668,16.30802 -57.88598,19.78509 -3.26647,2.71521 -6.55152,5.36272 -9.85781,7.95183 -6.06441,4.62296 -12.13059,8.82075 -18.195,12.59337 26.5043,-2.28959 52.45335,-10.07376 77.38834,-24.49437 25.39567,-14.41586 49.28379,-37.18811 65.10072,-62.33282 -11.19573,4.45219 -26.05701,7.3541 -44.59091,8.71236 z"
         clip-rule="evenodd"
         id="path20"
         sodipodi:nodetypes="ccccccccccccccccccccccccccccccccccccccccccccccccccccccccccccccccccccccccccccccccccccccccccccccccczccccccccccccczccccccccccccccccccc" /></g></g></svg>